<svg width="1102" height="600" xmlns="http://www.w3.org/2000/svg"><defs><linearGradient x1="0%" y1="0%" x2="100%" y2="100%" id="a"><stop stop-color="#FFF" stop-opacity=".5" offset="0%"/><stop stop-color="#FFF" offset="100%"/></linearGradient><linearGradient x1="80.848%" y1="100%" x2="18.996%" y2="0%" id="b"><stop stop-color="#DB9209" offset="0%"/><stop stop-color="#F1AD1E" offset="100%"/></linearGradient><linearGradient x1="15.38%" y1="-12.223%" x2="111.151%" y2="152.777%" id="c"><stop stop-color="#6F2396" offset="0%"/><stop stop-color="#FF3B00" offset="100%"/></linearGradient><linearGradient x1="80.928%" y1="100%" x2="22.248%" y2="0%" id="d"><stop stop-color="#174796" offset="0%"/><stop stop-color="#1D61CF" offset="100%"/></linearGradient><linearGradient x1="80.848%" y1="100%" x2="18.996%" y2="0%" id="e"><stop stop-color="#232226" offset="0%"/><stop stop-color="#46454D" offset="100%"/></linearGradient><linearGradient x1="-41.384%" y1="-43.915%" x2="102.001%" y2="101%" id="f"><stop stop-color="#3FA0F1" offset="0%"/><stop stop-color="#295ADA" offset="100%"/></linearGradient><linearGradient x1="102%" y1="101%" x2="0%" y2="0%" id="g"><stop stop-color="#3E90E8" offset="0%"/><stop stop-color="#2775CA" offset="100%"/></linearGradient><linearGradient x1="15.38%" y1="-12.223%" x2="111.151%" y2="152.777%" id="h"><stop stop-color="#00B424" offset="0%"/><stop stop-color="#06DA30" offset="100%"/></linearGradient><linearGradient x1="-12.607%" y1="0%" x2="115.111%" y2="101%" id="i"><stop stop-color="#1ABC9C" offset="0%"/><stop stop-color="#546979" offset="100%"/></linearGradient></defs><g fill="none" fill-rule="evenodd"><path opacity=".02" d="M250 300L550 0l300 300-300 300z"/><path fill="url(#a)" opacity=".02" transform="rotate(-180 826.5 300)" d="M669 300l150-150 150 150-150 150z"/><path fill="url(#a)" opacity=".02" transform="rotate(-180 258.5 300)" d="M101 300l150-150 150 150-150 150z"/><path fill="url(#a)" opacity=".05" d="M0 300l100-100 100 100-100 100z" transform="translate(15)"/><path fill="url(#a)" opacity=".05" transform="rotate(-45 542.495 279.888)" d="M464.995 227.995h140v140h-140z"/><path fill="url(#a)" opacity=".05" d="M872 300l100-100 100 100-100 100zM734 299l20-20 20 20-20 20zM298 299l20-20 20 20-20 20zM88 62l12-12 12 12-12 12zM523 62l12-12 12 12-12 12zM523 538l12-12 12 12-12 12zM960 62l12-12 12 12-12 12zM960 538l12-12 12 12-12 12zM88 538l12-12 12 12-12 12z" transform="translate(15)"/><g><path d="M6.6 14.346l3.996 2.308c.371.214.6.61.6 1.039v4.614a1.2 1.2 0 0 1-.6 1.04L6.6 25.653a1.2 1.2 0 0 1-1.2 0l-3.996-2.308a1.2 1.2 0 0 1-.6-1.039v-4.614a1.2 1.2 0 0 1 .6-1.04L5.4 14.347a1.2 1.2 0 0 1 1.2 0z" fill="url(#b)" transform="translate(0 96)"/><path d="M6.6 382.346l3.996 2.308c.371.214.6.61.6 1.039v4.614a1.2 1.2 0 0 1-.6 1.04L6.6 393.653a1.2 1.2 0 0 1-1.2 0l-3.996-2.308a1.2 1.2 0 0 1-.6-1.039v-4.614a1.2 1.2 0 0 1 .6-1.04l3.996-2.307a1.2 1.2 0 0 1 1.2 0z" fill="url(#c)" fill-rule="nonzero" transform="translate(0 96)"/><path d="M442.6 14.346l3.996 2.308c.371.214.6.61.6 1.039v4.614a1.2 1.2 0 0 1-.6 1.04l-3.996 2.307a1.2 1.2 0 0 1-1.2 0l-3.996-2.308a1.2 1.2 0 0 1-.6-1.039v-4.614a1.2 1.2 0 0 1 .6-1.04l3.996-2.307a1.2 1.2 0 0 1 1.2 0z" fill="url(#d)" transform="translate(0 96)"/><path d="M442.6 382.346l3.996 2.308c.371.214.6.61.6 1.039v4.614a1.2 1.2 0 0 1-.6 1.04l-3.996 2.307a1.2 1.2 0 0 1-1.2 0l-3.996-2.308a1.2 1.2 0 0 1-.6-1.039v-4.614a1.2 1.2 0 0 1 .6-1.04l3.996-2.307a1.2 1.2 0 0 1 1.2 0z" fill="url(#e)" transform="translate(0 96)"/><path d="M660.6 14.346l3.996 2.308c.371.214.6.61.6 1.039v4.614a1.2 1.2 0 0 1-.6 1.04l-3.996 2.307a1.2 1.2 0 0 1-1.2 0l-3.996-2.308a1.2 1.2 0 0 1-.6-1.039v-4.614a1.2 1.2 0 0 1 .6-1.04l3.996-2.307a1.2 1.2 0 0 1 1.2 0z" fill="url(#f)" fill-rule="nonzero" transform="translate(0 96)"/><path d="M660.6 382.346l3.996 2.308c.371.214.6.61.6 1.039v4.614a1.2 1.2 0 0 1-.6 1.04l-3.996 2.307a1.2 1.2 0 0 1-1.2 0l-3.996-2.308a1.2 1.2 0 0 1-.6-1.039v-4.614a1.2 1.2 0 0 1 .6-1.04l3.996-2.307a1.2 1.2 0 0 1 1.2 0z" fill="url(#g)" transform="translate(0 96)"/><path d="M1096.6 14.346l3.996 2.308c.371.214.6.61.6 1.039v4.614a1.2 1.2 0 0 1-.6 1.04l-3.996 2.307a1.2 1.2 0 0 1-1.2 0l-3.996-2.308a1.2 1.2 0 0 1-.6-1.039v-4.614a1.2 1.2 0 0 1 .6-1.04l3.996-2.307a1.2 1.2 0 0 1 1.2 0z" fill="url(#h)" fill-rule="nonzero" transform="translate(0 96)"/><path d="M1096.6 382.346l3.996 2.308c.371.214.6.61.6 1.039v4.614a1.2 1.2 0 0 1-.6 1.04l-3.996 2.307a1.2 1.2 0 0 1-1.2 0l-3.996-2.308a1.2 1.2 0 0 1-.6-1.039v-4.614a1.2 1.2 0 0 1 .6-1.04l3.996-2.307a1.2 1.2 0 0 1 1.2 0z" fill="url(#i)" fill-rule="nonzero" transform="translate(0 96)"/></g></g></svg>