<svg width="310" height="16" xmlns="http://www.w3.org/2000/svg"><defs><linearGradient x1="80.848%" y1="99.962%" x2="18.996%" y2=".038%" id="a"><stop stop-color="#DB9209" offset="0%"/><stop stop-color="#F1AD1E" offset="100%"/></linearGradient><linearGradient x1="112.607%" y1="100%" x2="-12.607%" y2="0%" id="b"><stop stop-color="#6EBEDC" offset="0%"/><stop stop-color="#1458DD" offset="100%"/></linearGradient><linearGradient x1="17.887%" y1=".038%" x2="82.793%" y2="99.962%" id="c"><stop stop-color="#58D98C" offset="0%"/><stop stop-color="#599270" offset="100%"/></linearGradient><linearGradient x1="15.38%" y1="-12.176%" x2="111.151%" y2="152.699%" id="d"><stop stop-color="#6F2396" offset="0%"/><stop stop-color="#FF3B00" offset="100%"/></linearGradient><linearGradient x1="80.848%" y1="99.962%" x2="18.996%" y2=".038%" id="e"><stop stop-color="#0683C2" offset="0%"/><stop stop-color="#069EE8" offset="100%"/></linearGradient><linearGradient x1="-12.607%" y1=".038%" x2="115.111%" y2="100.962%" id="f"><stop stop-color="#A1DE00" offset="0%"/><stop stop-color="#00AA25" offset="100%"/></linearGradient></defs><g fill-rule="nonzero" fill="none"><path d="M7.8.462l5.328 3.075c.495.285.8.814.8 1.385v6.15a1.6 1.6 0 0 1-.8 1.385L7.8 15.532a1.6 1.6 0 0 1-1.6 0L.872 12.457a1.6 1.6 0 0 1-.8-1.385v-6.15c0-.571.305-1.1.8-1.385L6.2.462a1.6 1.6 0 0 1 1.6 0z" fill="url(#a)"/><path d="M56.728.462l5.328 3.076c.495.286.8.814.8 1.386v6.152a1.6 1.6 0 0 1-.8 1.386l-5.328 3.076a1.6 1.6 0 0 1-1.6 0L49.8 12.462a1.6 1.6 0 0 1-.8-1.386V4.924c0-.572.305-1.1.8-1.386L55.128.462a1.6 1.6 0 0 1 1.6 0z" fill="url(#b)"/><path d="M105.728.462l5.328 3.075c.495.285.8.814.8 1.385v6.15a1.6 1.6 0 0 1-.8 1.385l-5.328 3.075a1.6 1.6 0 0 1-1.6 0L98.8 12.457a1.6 1.6 0 0 1-.8-1.385v-6.15c0-.571.305-1.1.8-1.385l5.328-3.075a1.6 1.6 0 0 1 1.6 0z" fill="url(#c)"/><path d="M155.728.462l5.328 3.075c.495.285.8.814.8 1.385v6.15a1.6 1.6 0 0 1-.8 1.385l-5.328 3.075a1.6 1.6 0 0 1-1.6 0l-5.328-3.075a1.6 1.6 0 0 1-.8-1.385v-6.15c0-.571.305-1.1.8-1.385l5.328-3.075a1.6 1.6 0 0 1 1.6 0z" fill="url(#d)"/><path d="M204.728.462l5.328 3.075c.495.285.8.814.8 1.385v6.15a1.6 1.6 0 0 1-.8 1.385l-5.328 3.075a1.6 1.6 0 0 1-1.6 0l-5.328-3.075a1.6 1.6 0 0 1-.8-1.385v-6.15c0-.571.305-1.1.8-1.385l5.328-3.075a1.6 1.6 0 0 1 1.6 0z" fill="url(#e)"/><path d="M253.728.462l5.328 3.075c.495.285.8.814.8 1.385v6.15a1.6 1.6 0 0 1-.8 1.385l-5.328 3.075a1.6 1.6 0 0 1-1.6 0l-5.328-3.075a1.6 1.6 0 0 1-.8-1.385v-6.15c0-.571.305-1.1.8-1.385l5.328-3.075a1.6 1.6 0 0 1 1.6 0z" fill="url(#f)"/><path d="M303.8.462l5.328 3.076c.495.286.8.814.8 1.386v6.152a1.6 1.6 0 0 1-.8 1.386l-5.328 3.076a1.6 1.6 0 0 1-1.6 0l-5.328-3.076a1.6 1.6 0 0 1-.8-1.386V4.924c0-.572.305-1.1.8-1.386L302.2.462a1.6 1.6 0 0 1 1.6 0z" fill="#FFF"/></g></svg>